<svg width="885" height="577" viewBox="0 0 885 577" fill="none" xmlns="http://www.w3.org/2000/svg">
<rect width="885" height="577" fill="white"/>
<g id="undraw_progress_data_4ebj(1) 1">
<g clip-path="url(#clip0)">
<g id="shadow">
<path id="Vector" d="M763.628 576.533C830.498 576.533 884.706 571.16 884.706 564.533C884.706 557.906 830.498 552.533 763.628 552.533C696.759 552.533 642.551 557.906 642.551 564.533C642.551 571.16 696.759 576.533 763.628 576.533Z" fill="#E6E6E6"/>
</g>
<g id="chart">
<path id="Vector_2" d="M567.571 0H0V284.751H567.571V0Z" fill="#EDEDED"/>
<path id="Vector_3" d="M541.509 23.1662H26.062V261.585H541.509V23.1662Z" fill="#EDEDED"/>
</g>
<g id="line">
<path id="Vector_4" d="M26.744 262.267L25.379 260.902L94.595 191.687L116.314 213.405L154.441 175.277L201.256 222.092L280.89 142.458L317.087 178.656L396.238 99.504L440.64 143.906L522.004 62.542L523.369 63.907L440.64 146.636L396.238 102.234L317.087 181.385L280.89 145.188L201.256 224.822L154.441 178.007L116.314 216.135L94.595 194.416L26.744 262.267Z" fill="#6C63FF"/>
</g>
<g id="points">
<path id="Vector_5" d="M396.721 113.9C403.118 113.9 408.304 108.714 408.304 102.317C408.304 95.9201 403.118 90.7342 396.721 90.7342C390.324 90.7342 385.138 95.9201 385.138 102.317C385.138 108.714 390.324 113.9 396.721 113.9Z" fill="#6C63FF"/>
<path id="Vector_6" d="M155.406 189.19C161.804 189.19 166.99 184.005 166.99 177.607C166.99 171.21 161.804 166.024 155.406 166.024C149.009 166.024 143.823 171.21 143.823 177.607C143.823 184.005 149.009 189.19 155.406 189.19Z" fill="#6C63FF"/>
<path id="Vector_7" d="M317.57 190.156C323.967 190.156 329.153 184.97 329.153 178.573C329.153 172.175 323.967 166.99 317.57 166.99C311.173 166.99 305.987 172.175 305.987 178.573C305.987 184.97 311.173 190.156 317.57 190.156Z" fill="#6C63FF"/>
<path id="Vector_8" d="M204.635 233.592C211.032 233.592 216.218 228.406 216.218 222.009C216.218 215.612 211.032 210.426 204.635 210.426C198.237 210.426 193.052 215.612 193.052 222.009C193.052 228.406 198.237 233.592 204.635 233.592Z" fill="#6C63FF"/>
<path id="Vector_9" d="M278.959 157.337C285.357 157.337 290.543 152.151 290.543 145.754C290.543 139.357 285.357 134.171 278.959 134.171C272.562 134.171 267.376 139.357 267.376 145.754C267.376 152.151 272.562 157.337 278.959 157.337Z" fill="#6C63FF"/>
<path id="Vector_10" d="M440.157 157.337C446.555 157.337 451.741 152.151 451.741 145.754C451.741 139.357 446.555 134.171 440.157 134.171C433.76 134.171 428.574 139.357 428.574 145.754C428.574 152.151 433.76 157.337 440.157 157.337Z" fill="#6C63FF"/>
</g>
<g id="leaf">
<path id="Vector_11" d="M74.9902 565C98.9388 565 118.353 562.314 118.353 559C118.353 555.686 98.9388 553 74.9902 553C51.0416 553 31.6275 555.686 31.6275 559C31.6275 562.314 51.0416 565 74.9902 565Z" fill="#E6E6E6"/>
<path id="Vector_12" d="M61.3668 529.507C66.0668 546.881 82.1652 557.641 82.1652 557.641C82.1652 557.641 90.6435 540.233 85.9435 522.859C81.2436 505.485 65.1451 494.725 65.1451 494.725C65.1451 494.725 56.6669 512.133 61.3668 529.507Z" fill="#E6E6E6"/>
<path id="Vector_13" d="M68.2731 525.773C81.1699 538.328 82.7451 557.627 82.7451 557.627C82.7451 557.627 63.4106 556.571 50.5138 544.017C37.617 531.462 36.0418 512.163 36.0418 512.163C36.0418 512.163 55.3763 513.219 68.2731 525.773Z" fill="#6C63FF"/>
</g>
<g id="character">
<path id="Vector_14" d="M722.985 134.196L730.372 207.248H791.167L788.244 96.2094C788.244 72.3093 771.722 51.4044 747.823 51.4044C723.923 51.4044 708.375 71.3353 708.375 95.2354L704.479 207.248H714.391L722.985 134.196Z" fill="#2F2E41"/>
<path id="Vector_15" d="M759.321 517.28C759.321 517.28 756.697 533.898 752.324 536.522C747.951 539.146 775.065 545.269 775.065 545.269L779.439 519.029L759.321 517.28Z" fill="#FBBEBE"/>
<path id="Vector_16" d="M791.684 327.478L801.305 338.848L796.932 378.208L793.433 456.053C793.433 456.053 800.431 523.402 793.433 525.152C786.436 526.901 754.948 526.026 755.823 521.653C756.697 517.28 757.572 513.781 759.321 507.659C761.071 501.536 757.572 479.669 757.572 479.669L761.945 455.179L746.201 349.344L791.684 327.478Z" fill="#2F2E41"/>
<path id="Vector_17" d="M760.196 533.899C760.196 533.899 750.575 532.149 749.7 533.899C748.826 535.648 732.207 554.016 729.583 554.016C726.959 554.016 707.716 571.509 727.834 572.384C747.951 573.258 781.188 557.514 781.188 557.514C781.188 557.514 776.297 535.257 776.556 536.327C776.815 537.397 760.196 538.272 760.196 533.899Z" fill="#2F2E41"/>
<path id="Vector_18" d="M749.7 493.664C749.7 493.664 774.191 520.779 775.065 523.403C775.94 526.027 789.06 523.403 789.06 523.403L794.308 505.909L789.935 499.787L765.444 479.669L749.7 493.664Z" fill="#FBBEBE"/>
<path id="Vector_19" d="M784.687 513.781L772.004 525.719C772.004 525.719 788.185 550.517 788.185 553.141C788.185 555.765 789.06 577.632 797.807 574.133C806.553 570.634 807.428 535.648 807.428 535.648C807.428 535.648 806.553 499.787 801.305 497.163C796.057 494.539 784.555 495.368 784.555 495.368C784.555 495.368 791.684 512.907 784.687 513.781Z" fill="#2F2E41"/>
<path id="Vector_20" d="M712.09 249.633C712.09 249.633 707.716 263.627 706.842 267.126C705.967 270.625 700.719 280.246 700.719 295.115C700.719 309.984 702.468 327.478 700.719 329.227C698.97 330.976 670.98 428.939 683.226 439.435C695.471 449.931 735.706 484.917 738.33 489.291C740.954 493.664 741.828 504.16 747.076 502.411C752.324 500.661 772.441 483.168 773.316 479.669C774.191 476.171 761.945 470.048 761.945 470.048C761.945 470.048 737.455 434.187 731.332 435.061C725.21 435.936 726.084 430.688 726.959 428.064C727.834 425.44 729.583 423.691 726.959 423.691C724.335 423.691 726.084 416.693 726.959 413.195C727.834 409.696 747.951 362.464 747.951 362.464L801.305 338.848C801.305 338.848 798.681 274.998 779.439 257.505L775.065 247.009C775.065 247.009 726.084 243.51 712.09 249.633Z" fill="#2F2E41"/>
<path id="Vector_21" d="M733.956 111.436C733.956 111.436 738.33 142.049 727.834 143.798C717.338 145.548 708.591 144.673 708.591 145.548C708.591 146.422 734.831 173.537 734.831 173.537L759.321 171.787L781.188 148.172C781.188 148.172 761.071 144.673 761.071 132.428C761.071 120.182 760.196 111.436 760.196 111.436L733.956 111.436Z" fill="#FFB8B8"/>
<path id="Vector_22" d="M747.514 124.118C762.489 124.118 774.628 111.979 774.628 97.0037C774.628 82.0287 762.489 69.8891 747.514 69.8891C732.539 69.8891 720.399 82.0287 720.399 97.0037C720.399 111.979 732.539 124.118 747.514 124.118Z" fill="#FFB8B8"/>
<path id="Vector_23" d="M731.689 141.572C731.689 141.572 689.348 145.548 686.724 156.918C684.1 168.289 704.218 239.137 706.842 245.259C709.466 251.382 708.591 255.755 708.591 255.755C712.549 252.795 717.094 250.718 721.922 249.661C726.75 248.605 731.748 248.596 736.58 249.633C753.199 253.131 776.815 251.382 776.815 251.382C776.815 251.382 784.687 219.019 786.436 215.521C788.185 212.022 795.183 192.779 795.183 187.531C795.183 182.284 805.679 160.417 805.679 160.417C805.679 160.417 800.431 144.673 781.188 145.548C781.188 145.548 772.795 141.791 770.431 144.544C768.068 147.297 754.948 159.542 738.33 154.294C721.711 149.046 731.689 141.572 731.689 141.572Z" fill="#E6E6E6"/>
<path id="Vector_24" d="M789.06 156.044L805.679 160.417C805.679 160.417 817.924 205.025 818.799 205.899C819.673 206.774 820.548 212.022 820.548 212.022C820.548 212.022 820.548 212.897 822.297 215.521C824.047 218.145 826.671 216.395 824.921 219.894C823.172 223.393 820.548 221.643 822.297 225.142C824.047 228.641 823.172 238.262 823.172 238.262C823.172 238.262 818.799 221.643 803.055 226.017L792.559 178.785L789.06 156.044Z" fill="#E6E6E6"/>
<path id="Vector_25" d="M794.553 164.416L794.493 164.616L765.683 255.376L746.773 251.176L726.323 246.637L755.193 153.046L794.553 164.416Z" fill="#6C63FF"/>
<path id="Vector_26" d="M703.646 156.044L687.027 160.417C687.027 160.417 674.782 205.025 673.907 205.899C673.032 206.774 672.158 212.022 672.158 212.022C672.158 212.022 672.158 212.897 670.408 215.521C668.659 218.145 666.035 216.395 667.784 219.894C669.534 223.393 672.158 221.643 670.408 225.142C668.659 228.641 669.534 238.262 669.534 238.262C669.534 238.262 673.907 221.643 689.651 226.017L700.147 178.785L703.646 156.044Z" fill="#E6E6E6"/>
<path id="Vector_27" d="M674.782 223.393L669.318 232.524C669.318 232.524 666.91 249.633 679.155 249.633C691.4 249.633 708.894 233.014 708.894 233.014C708.894 233.014 717.64 229.515 722.888 230.39C728.136 231.265 757 230.39 744.755 215.521C732.51 200.651 711.518 215.521 711.518 215.521L689.651 226.017L678.28 219.894L674.782 223.393Z" fill="#FFB8B8"/>
<path id="Vector_28" d="M682.216 211.585L690.963 225.579C690.963 225.579 670.846 228.203 669.097 232.577C667.347 236.95 676.969 209.835 676.969 209.835L682.216 211.585Z" fill="#E6E6E6"/>
<path id="Vector_29" d="M724.933 87.4432C742.547 77.9468 749.783 78.3489 771.686 87.4432L777.53 73.2048C777.527 70.5238 776.461 67.9535 774.565 66.0578C772.669 64.162 770.099 63.0957 767.418 63.0927H728.227C725.546 63.0957 722.976 64.1621 721.08 66.0578C719.184 67.9535 718.118 70.5238 718.115 73.2048L724.933 87.4432Z" fill="#2F2E41"/>
<path id="Vector_30" opacity="0.2" d="M794.493 164.616L765.683 255.376L746.773 251.176L775.193 159.046L794.493 164.616Z" fill="black"/>
<path id="Vector_31" d="M781.188 159.044L752.324 252.633L791.684 261.379L820.548 170.414L781.188 159.044Z" fill="#6C63FF"/>
<path id="Vector_32" d="M817.924 223.393L823.388 232.524C823.388 232.524 825.796 249.633 813.551 249.633C801.305 249.633 783.812 233.014 783.812 233.014C783.812 233.014 775.065 229.515 769.817 230.39C764.569 231.265 735.706 230.39 747.951 215.521C760.196 200.651 781.188 215.521 781.188 215.521L803.055 226.017L814.425 219.894L817.924 223.393Z" fill="#FFB8B8"/>
<path id="Vector_33" d="M810.489 211.585L801.743 225.579C801.743 225.579 821.86 228.203 823.609 232.577C825.359 236.95 815.737 209.835 815.737 209.835L810.489 211.585Z" fill="#E6E6E6"/>
</g>
</g>
</g>
<defs>
<clipPath id="clip0">
<rect width="884.706" height="576.533" fill="white"/>
</clipPath>
</defs>
</svg>
